<?xml version="1.0" standalone="no"?>
<!DOCTYPE svg PUBLIC "-//W3C//DTD SVG 20010904//EN"
 "http://www.w3.org/TR/2001/REC-SVG-20010904/DTD/svg10.dtd">
<svg version="1.0" xmlns="http://www.w3.org/2000/svg"
 width="300.000000pt" height="300.000000pt" viewBox="0 0 300.000000 300.000000"
 preserveAspectRatio="xMidYMid meet">
<metadata>
Created by potrace 1.11, written by Peter Selinger 2001-2013
</metadata>
<g transform="translate(0.000000,300.000000) scale(0.100000,-0.100000)"
fill="#000000" stroke="none">
<path d="M1805 2489 c-69 -10 -76 -12 -115 -35 -48 -28 -90 -113 -90 -181 l0
-51 -42 -14 c-51 -17 -164 -16 -195 0 -12 7 -51 42 -87 78 l-65 65 -88 -4
c-113 -7 -116 -7 -333 -62 -17 -4 -169 -46 -252 -69 -57 -16 -213 -90 -234
-111 -6 -5 -33 -25 -60 -44 -105 -73 -193 -219 -209 -346 -2 -16 -10 -70 -19
-120 -20 -118 -20 -147 3 -177 28 -35 87 -49 210 -49 163 1 282 30 456 111
146 68 265 149 265 180 0 23 -52 120 -72 134 -12 9 -19 18 -16 21 19 19 103
32 193 29 100 -3 166 -16 340 -69 50 -15 115 -34 145 -42 30 -7 64 -16 75 -19
66 -19 184 -41 228 -43 16 0 26 -5 22 -11 -4 -6 -10 -8 -15 -5 -4 2 -20 -5
-34 -16 -21 -16 -26 -28 -22 -49 l4 -28 -40 14 c-47 16 -106 18 -141 5 -20 -8
-29 -6 -42 9 -9 10 -22 17 -28 16 -13 -2 -202 -63 -227 -73 -8 -4 -18 -7 -22
-7 -3 -1 -9 -4 -13 -8 -4 -4 -13 -4 -21 -1 -8 3 -14 0 -14 -6 0 -6 -6 -11 -14
-11 -13 0 -327 -100 -366 -117 -8 -3 -17 -7 -20 -8 -3 -1 -39 -12 -80 -25 -41
-13 -77 -24 -80 -25 -3 0 -9 -3 -15 -6 -5 -4 -26 -10 -45 -14 -19 -4 -39 -11
-45 -15 -11 -9 -154 -53 -172 -53 -7 0 -13 -4 -13 -8 0 -4 -11 -10 -25 -13
-49 -12 -62 -39 -58 -119 2 -40 5 -81 7 -92 3 -11 5 -30 5 -42 1 -30 18 -44
173 -148 73 -49 135 -92 138 -95 3 -3 12 -9 21 -15 22 -14 61 -41 143 -98 61
-43 73 -48 110 -44 38 4 96 -16 96 -34 0 -4 14 -12 30 -19 17 -7 30 -16 30
-21 0 -5 37 -9 82 -9 59 0 93 5 122 19 56 26 90 41 246 106 74 31 149 63 165
70 76 35 411 177 420 179 27 6 93 47 99 61 3 9 6 34 6 55 l0 39 46 -19 c74
-32 109 -27 269 45 17 7 51 22 77 34 84 38 92 39 123 27 32 -13 43 -11 140 33
22 10 50 21 61 25 43 13 56 41 66 138 11 118 7 135 -40 156 -20 8 -39 16 -42
17 -3 0 -9 3 -15 6 -20 13 -167 69 -179 69 -6 0 -18 15 -24 34 -7 19 -26 51
-43 72 -29 37 -31 43 -25 98 3 33 16 91 28 129 21 65 25 70 88 112 66 44 92
78 85 112 -13 63 -83 163 -114 163 -4 0 -16 8 -27 18 -21 20 -214 112 -236
112 -32 2 -90 30 -109 54 -11 14 -24 24 -28 21 -5 -2 -22 0 -40 5 -60 17 -223
32 -233 22 -9 -9 -38 -9 -153 1 -16 2 -52 0 -80 -4z m230 -109 l30 -12 -49
-13 c-58 -15 -83 -43 -92 -102 -11 -75 1 -92 141 -187 93 -64 146 -115 147
-142 1 -31 -19 -72 -44 -88 -61 -40 -220 -48 -378 -20 -19 4 -44 8 -55 9 -42
6 -227 54 -345 90 -70 21 -169 47 -185 48 -11 2 -25 5 -30 9 -12 8 -168 3
-208 -6 -93 -21 -180 -63 -197 -96 -12 -22 -6 -39 37 -107 l32 -51 -102 -50
c-136 -67 -196 -91 -263 -107 -10 -2 -39 -9 -64 -15 -52 -13 -216 -16 -275 -6
-42 8 -90 39 -81 54 3 5 8 24 11 43 10 62 34 133 68 199 24 48 47 77 92 113
73 59 210 127 325 163 421 128 472 142 573 148 83 5 114 -8 171 -71 26 -30 65
-62 85 -72 32 -17 98 -36 111 -34 3 1 20 4 39 6 43 7 82 35 100 73 17 35 22
62 25 137 2 67 8 73 90 91 64 15 251 12 291 -4z m230 -134 c107 -9 168 -17
185 -23 8 -3 24 -7 35 -8 11 -1 44 -7 73 -14 58 -14 60 -20 41 -96 -8 -32 -20
-50 -48 -69 -35 -25 -61 -56 -70 -86 -9 -33 -3 -142 10 -157 1 -2 2 -6 4 -10
1 -5 5 -21 10 -36 4 -17 3 -33 -3 -39 -6 -6 -7 -17 -2 -27 4 -9 14 -29 21 -46
7 -16 15 -33 17 -37 2 -3 -5 -8 -15 -10 -16 -3 -218 75 -265 102 -10 5 -25 10
-35 10 -14 0 -14 3 4 23 28 31 46 90 39 135 -14 103 -21 131 -41 177 -24 53
-65 96 -158 162 -32 23 -54 43 -50 46 4 2 39 5 78 6 38 2 71 4 73 6 2 2 9 2
15 0 7 -2 44 -6 82 -9z"/>
</g>
</svg>
